<svg width="800" height="400" viewBox="0 0 800 400" fill="none" xmlns="http://www.w3.org/2000/svg">
  <rect width="800" height="400" fill="#0a0a1a"/>
  <defs>
    <linearGradient id="ig1" x1="0" y1="0" x2="800" y2="400">
      <stop offset="0%" stop-color="#7c3aed" stop-opacity="0.3"/>
      <stop offset="100%" stop-color="#ec4899" stop-opacity="0.15"/>
    </linearGradient>
    <linearGradient id="ig2" x1="200" y1="100" x2="600" y2="300">
      <stop offset="0%" stop-color="#8b5cf6"/>
      <stop offset="100%" stop-color="#ec4899"/>
    </linearGradient>
  </defs>
  <circle cx="400" cy="200" r="200" fill="url(#ig1)" opacity="0.4"/>
  <!-- Camera/AI icon -->
  <rect x="310" y="130" width="180" height="130" rx="15" fill="none" stroke="url(#ig2)" stroke-width="3" opacity="0.7"/>
  <circle cx="400" cy="190" r="35" fill="none" stroke="url(#ig2)" stroke-width="2.5" opacity="0.6"/>
  <circle cx="400" cy="190" r="15" fill="#8b5cf6" opacity="0.3"/>
  <rect x="340" y="140" width="30" height="12" rx="6" fill="#8b5cf6" opacity="0.4"/>
  <!-- AI sparkles -->
  <circle cx="520" cy="120" r="4" fill="#c084fc" opacity="0.8"/>
  <circle cx="540" cy="140" r="3" fill="#e879f9" opacity="0.6"/>
  <circle cx="555" cy="115" r="2.5" fill="#f0abfc" opacity="0.7"/>
  <circle cx="260" cy="260" r="3.5" fill="#c084fc" opacity="0.7"/>
  <circle cx="245" cy="240" r="2.5" fill="#e879f9" opacity="0.5"/>
  <!-- Arrow transform -->
  <path d="M400 280 L400 310 M390 300 L400 310 L410 300" stroke="#a78bfa" stroke-width="2.5" opacity="0.6"/>
  <!-- Result frame -->
  <rect x="340" y="320" width="120" height="50" rx="8" fill="none" stroke="#c084fc" stroke-width="2" opacity="0.4"/>
  <rect x="350" y="330" width="40" height="30" rx="4" fill="#7c3aed" opacity="0.2"/>
  <rect x="400" y="330" width="50" height="15" rx="3" fill="#8b5cf6" opacity="0.15"/>
  <rect x="400" y="350" width="30" height="8" rx="3" fill="#a78bfa" opacity="0.1"/>
  <text x="400" y="395" text-anchor="middle" fill="#c084fc" font-family="monospace" font-size="14" opacity="0.6">IMMOGEN — Virtual Staging IA</text>
</svg>
