<svg width="800" height="400" viewBox="0 0 800 400" fill="none" xmlns="http://www.w3.org/2000/svg">
  <rect width="800" height="400" fill="#0a0a1a"/>
  <defs>
    <linearGradient id="wp1" x1="0" y1="0" x2="800" y2="400">
      <stop offset="0%" stop-color="#2563eb" stop-opacity="0.2"/>
      <stop offset="100%" stop-color="#06b6d4" stop-opacity="0.15"/>
    </linearGradient>
  </defs>
  <circle cx="400" cy="200" r="180" fill="url(#wp1)" opacity="0.4"/>
  <!-- WordPress icon simplified -->
  <circle cx="400" cy="180" r="70" fill="none" stroke="#3b82f6" stroke-width="2.5" opacity="0.5"/>
  <text x="400" y="195" text-anchor="middle" fill="#60a5fa" font-family="serif" font-size="60" font-weight="bold" opacity="0.6">W</text>
  <!-- SEO chart bars -->
  <rect x="280" y="290" width="30" height="50" rx="4" fill="#3b82f6" opacity="0.3"/>
  <rect x="320" y="270" width="30" height="70" rx="4" fill="#6366f1" opacity="0.35"/>
  <rect x="360" y="250" width="30" height="90" rx="4" fill="#8b5cf6" opacity="0.4"/>
  <rect x="400" y="260" width="30" height="80" rx="4" fill="#a78bfa" opacity="0.35"/>
  <rect x="440" y="240" width="30" height="100" rx="4" fill="#6366f1" opacity="0.4"/>
  <rect x="480" y="270" width="30" height="70" rx="4" fill="#3b82f6" opacity="0.3"/>
  <!-- Gamification star -->
  <polygon points="540,130 548,150 570,152 554,165 558,187 540,176 522,187 526,165 510,152 532,150" fill="#eab308" opacity="0.4"/>
  <text x="400" y="380" text-anchor="middle" fill="#60a5fa" font-family="monospace" font-size="14" opacity="0.6">NEXYWEB Coach — Plugin WordPress SEO</text>
</svg>
